<?xml version="1.0" standalone="no"?>
<!DOCTYPE svg PUBLIC "-//W3C//DTD SVG 20010904//EN"
 "http://www.w3.org/TR/2001/REC-SVG-20010904/DTD/svg10.dtd">
<svg version="1.0" xmlns="http://www.w3.org/2000/svg"
 width="225.000000pt" height="225.000000pt" viewBox="0 0 225.000000 225.000000"
 preserveAspectRatio="xMidYMid meet">
<metadata>
Created by potrace 1.11, written by Peter Selinger 2001-2013
</metadata>
<g transform="translate(0.000000,225.000000) scale(0.100000,-0.100000)"
fill="#000000" stroke="none">
<path d="M7 2088 c4 -7 255 -442 558 -967 303 -524 555 -954 559 -955 5 0 256
429 560 954 303 525 555 961 559 968 7 9 -81 12 -425 12 l-433 0 -108 -188
c-59 -103 -117 -204 -130 -225 l-23 -38 -130 225 -129 226 -433 0 c-344 0
-432 -3 -425 -12z"/>
</g>
</svg>
